<?xml version="1.0" encoding="utf-8"?>
<!-- Generator: Adobe Illustrator 23.0.5, SVG Export Plug-In . SVG Version: 6.00 Build 0)  -->
<svg version="1.1" id="Layer_1" xmlns="http://www.w3.org/2000/svg" xmlns:xlink="http://www.w3.org/1999/xlink" x="0px" y="0px"
	 viewBox="0 0 612 614.8" style="enable-background:new 0 0 612 614.8;" xml:space="preserve">
<style type="text/css">
	.st0{fill:#E83552;}
	.st1{fill:#6E6E6E;}
</style>
<path class="st0" d="M0.2,613c0-52.1-0.2-103.4,0.4-154.6c0-3.3,5.6-7.9,9.5-9.3c4.7-1.7,10.4-0.7,15.7-0.7c188.8,0,377.5,0,566.3,0
	c6.4,0,12.8,0.6,19,0.9c6.8,56.7-35.9,125.1-95.3,149.4c-21.5,8.8-45.7,15.1-68.7,15.3c-143.9,1.4-287.7,0.7-431.6,0.7
	C11.1,614.6,6.6,613.7,0.2,613z"/>
<path class="st0" d="M224.6,388.5c0-54.8,0-108.6,0-163.1c54.8,0,108.1,0,161.3,0C404.1,298.9,310.8,394.3,224.6,388.5z"/>
<path class="st0" d="M224.6,164.1c0-54.8,0-108.6,0-163.1C279.4,1,332.7,1,386,1C404.1,74.4,310.8,169.9,224.6,164.1z"/>
<path class="st0" d="M611,1.2c11.6,80.5-76.9,169.4-162,162.5c0-53.7,0-107.5,0-162.5C503.6,1.2,557.3,1.2,611,1.2z"/>
<path class="st0" d="M1.5,0.8c54.9,0,108,0,161,0c9.4,89.6-83.5,170.6-161,162.7C1.5,110.1,1.5,56.5,1.5,0.8z"/>
<path class="st0" d="M448.9,388.8c0-54.4,0-107.6,0-162.5c54.2,0,108.3,0,162.3,0C620.9,306.3,535.1,393.1,448.9,388.8z"/>
<path class="st0" d="M1,388.7c0-54.5,0-107.6,0-162.5c54.4,0,108.6,0,162.6,0C172.3,306.7,86.3,393.4,1,388.7z"/>
</svg>
