<?xml version="1.0" encoding="utf-8"?>
<!-- Generator: Adobe Illustrator 23.0.5, SVG Export Plug-In . SVG Version: 6.00 Build 0)  -->
<svg version="1.1" id="Layer_1" xmlns="http://www.w3.org/2000/svg" xmlns:xlink="http://www.w3.org/1999/xlink" x="0px" y="0px"
	 viewBox="0 0 612 669.3" style="enable-background:new 0 0 612 669.3;" xml:space="preserve">
<style type="text/css">
	.st0{fill:#B5A0FA;}
	.st1{fill:#8E78EA;}
	.st2{fill:#A48FF3;}
	.st3{fill:#7760E1;}
	.st4{fill:#6751DB;}
</style>
<g>
	<path class="st0" d="M152.5,597.4c-35.1-20-71.1-38.4-104.9-60.4c-29.8-19.5-46.1-49.1-46.3-85.5C1,372.9,0.7,294.4,1.6,215.9
		c0.4-36.2,17.3-66,47.9-84.4c68.5-41.3,138.3-80.6,207.7-120.4c16-9.2,33.8-12.1,52.1-10.8c-5.9,1.3-11.9,2.2-17.7,3.9
		C264,12.3,244,28.5,235.6,57c-7.9,13-11.5,27.7-16.9,41.7c-13.3,34-26.2,68.2-39.2,102.3c-5-2.7-9.9-1.4-14.9,0.2
		c-41.4,13-82.8,26.1-124.3,38.7c-9.5,2.9-18.6,8-28.8,7.1c-6.5-0.5-7.8,1.9-7.7,7.4c0.2,17.7,0.1,35.4,0.1,53.1
		c0,14.1-0.1,28.2-0.1,42.4c0,6.2,0.8,12.1,3.3,17.8c9.5,22.2,24.6,39,47.3,48.1c12.5,5,25.3,9.2,38,13.8c3.5,1.6,7,3,10.4,4.7
		c9.5,4.5,20.3,5.7,28.9,12.3c-7.7,0.2-7.7,4.7-6.3,10.6c6.5,29.1,13,58.2,19,87.4C147.7,562.1,154.5,579.1,152.5,597.4z"/>
	<path class="st0" d="M609.8,308.7c0,3.6,0,7.3,0,10.9c0,0-0.6,0.4-0.6,0.4l0.6,0.5c0.1,42.2,0.3,84.3,0.1,126.5
		c-0.2,42-18.4,74.2-54.9,95.3c-65.9,38.3-131.9,76.2-197.9,114.3c-19.1,11-39.7,14.3-61.4,12c4.1-2.4,8.7-1.5,13.1-1.7
		c27-1.3,57.2-24.7,64.4-49.9c10.8-24,20-48.6,28.7-73.4c7.4-20.8,15.6-41.3,24.4-61.5c4.2,5,8.9,1.9,13.3,0.5
		c52.6-16.2,105.1-32.7,157.9-48.4c7.6-2.3,9.3-5.7,9.3-12.7c-0.2-34.8,0-69.6,0-104.3c-0.7-16.3-8.6-29.4-19-41.2
		c-17.4-19.8-41.3-27.5-65.6-34.6c-14.6-6.6-30.3-10.6-44.3-18.6c4.5-4.3,3.1-9.4,2-14.4c-8.5-39.3-16.9-78.5-25.7-117.7
		c-1.6-7.1-2.4-13.9,0.6-20.7c32.3,18.6,64.2,38.1,97,55.7c29.8,16,47.1,40.6,55.6,72.4c1.1,4.3,1.3,8.9,1.9,13.3
		C608.8,243.7,608.4,276.2,609.8,308.7z"/>
	<path class="st1" d="M235.6,57C244,28.5,264,12.3,291.6,4.2c5.8-1.7,11.8-2.6,17.7-3.9c19.1,0.5,37.5,3.1,52.3,17
		c-3.9,4.4-3.1,9.3-2,14.5c4.3,19.1,8.4,38.2,12.4,57.3c0.9,4.3,2.5,9.1-3.5,11.4c-19.2-10.8-30-6.7-37.3,14.2
		c-1.7,4.8-3.6,9.6-5.3,14.5c-8.1,23-19.6,44.8-24.2,69c-1.6,3.4-3.3,6.9-4.8,10.4c-5,11.7-7.9,24.2-14.2,35.3
		c-6.2-1.3-7.5-6.3-8.7-11.5c-8.9-40.6-17.9-81.1-26.8-121.7C243.3,92.9,239.5,75,235.6,57z"/>
	<path class="st1" d="M373.3,617.1c-7.2,25.2-37.4,48.6-64.4,49.9c-4.4,0.2-9-0.7-13.1,1.7c-14.7,0.1-28.1-4-40.7-11.5
		c2-8.7,0.1-17-1.9-25.5c-3.9-15.9-7.1-31.9-10.7-47.8c-1.1-4.8-1.1-9.5,0.3-14.2c16.3,9.5,28.5,5.9,35.5-11.3
		c8-19.9,15.2-40.2,22.5-60.4c3.1-8.7,7.8-17,8.4-26.5c7.2-12.8,9.8-27.4,16.3-40.5c0.8,6.2,5.7,10.6,7,16.8
		c11.3,53.2,23,106.2,34.5,159.4C367.9,611.3,368.6,615.4,373.3,617.1z"/>
	<path class="st2" d="M242.8,569.6c-1.4,4.7-1.4,9.4-0.4,14.2c3.6,15.9,6.8,32,10.7,47.8c2.1,8.5,3.9,16.8,1.9,25.5
		c-34.2-19.9-68.3-39.8-102.5-59.7c2-18.4-4.8-35.4-8.4-52.8c-6-29.2-12.5-58.3-19-87.4c-1.3-5.9-1.3-10.4,6.3-10.6
		c26.1,8.4,53.7,13.7,75.1,32.8c3.5,5.8,6.2,11.9,8.6,18.2C224.5,521.6,231.7,546.3,242.8,569.6z"/>
	<path class="st2" d="M368.5,100.6c6-2.3,4.4-7.1,3.5-11.4c-4.1-19.1-8.2-38.2-12.4-57.3c-1.2-5.2-1.9-10.1,2-14.5
		c14.3,4.8,26.5,13.8,39.4,21.1c17.9,10.1,35.6,20.8,53.3,31.2c0,0,0.1,0.5,0.1,0.5l0.5-0.3c0,0,0.1,0,0.1,0
		c-2.9,6.8-2.2,13.6-0.6,20.7c8.8,39.2,17.2,78.5,25.7,117.7c1.1,5,2.5,10.2-2,14.4c-26.1-7.9-53-14.2-74.1-33.3
		c-3.7-6.4-6.5-13.1-9.1-20C386.1,146.5,379.1,122.8,368.5,100.6z"/>
	<path class="st3" d="M609.8,308.7c-1.5-32.5-1-65-0.2-97.5C610.9,243.7,610.5,276.2,609.8,308.7z"/>
	<polygon class="st0" points="454.9,69.8 454.4,70.1 454.3,69.6 	"/>
	<path class="st3" d="M609.7,320.5l-0.6-0.5c0,0,0.6-0.4,0.6-0.4c0,0,0.3,0.5,0.3,0.5L609.7,320.5z"/>
	<path class="st1" d="M92.2,429.6c-12.7-4.6-25.5-8.8-38-13.8c-22.7-9.1-37.7-25.9-47.3-48.1c-2.5-5.7-3.3-11.7-3.3-17.8
		c0.1-14.1,0.1-28.2,0.1-42.4c6.8,0.1,13.1-2.2,19.6-3.7c14.2-3.3,27.4-10.3,42.1-11.9c3.4,8.8,10.2,13.4,18.9,16.3
		c10,3.4,19.6,8,29.6,11.4c18.2,6.1,35.7,14.1,54.5,18.6c4.3,2,8.6,4.2,13,5.9c23.3,8.9,46.6,17.6,69.9,26.4
		c-2.9,5.8-8.4,7.7-13.9,9.4c-41.4,12.8-82.7,25.4-124,38.4C105.9,420.7,96.7,421,92.2,429.6z"/>
	<path class="st3" d="M235.6,57c3.9,17.9,7.7,35.8,11.6,53.7c8.9,40.6,17.8,81.1,26.8,121.7c1.1,5.2,2.4,10.2,8.7,11.5
		c-3.4,15.1-9.7,29.2-15.6,43.4c-2,4.9-6.2,8.2-11.2,10.2c-11.6,4.5-23.2,9.1-35,13.1c-12.4,4.2-24.1,10.6-37.3,12.5
		c-9.3-29.3-16-59.1-19.5-89.6c8.6-9.2,12.4-20.6,15.4-32.5c13-34.1,25.9-68.3,39.2-102.3C224.1,84.7,227.8,70,235.6,57z"/>
	<path class="st3" d="M92.2,429.6c4.6-8.6,13.7-8.9,21.4-11.3c41.3-13,82.7-25.6,124-38.4c5.6-1.7,11.1-3.6,13.9-9.4
		c8.3,1.5,14.1,6.5,17,14.2c8.1,21.6,15.8,43.4,23.7,65.1c-4.8,7.3-13.2,7.3-20.3,9.5c-21.7,6.8-43.5,13.4-65.2,20
		c-21.5-19.2-49-24.4-75.1-32.8c-8.5-6.7-19.4-7.8-28.9-12.3C99.2,432.7,95.6,431.2,92.2,429.6z"/>
	<path class="st2" d="M179.5,201c-3,11.8-6.9,23.3-15.4,32.5c-7.6,5.5-16,9.4-24.9,12.5c-19.1,6.7-38.1,13.9-57.1,21.1
		c-13.3,5.1-16.6,10.3-16.6,24.9c-14.7,1.7-27.9,8.7-42.1,11.9c-6.5,1.5-12.8,3.8-19.6,3.7c0-17.7,0.1-35.4-0.1-53.1
		c-0.1-5.6,1.2-8,7.7-7.4c10.2,0.8,19.4-4.3,28.8-7.1c41.5-12.6,82.9-25.7,124.3-38.7C169.6,199.6,174.5,198.3,179.5,201z"/>
	<path class="st1" d="M522.4,241.4c24.2,7.1,48.2,14.8,65.6,34.6c10.3,11.8,18.3,24.9,19,41.2c-1.6,0.1-3.3-0.1-4.8,0.3
		c-29.7,9.1-59.4,18.2-89.1,27.5c-3.8,1.2-6.8,3.6-8.8,7.1c-4.6-1.4-9.1-2.7-13.7-4.1c-16.4-5.1-31.7-13.3-48.6-17.1
		c-2.9-1.3-5.7-2.8-8.7-3.9c-23.4-8.9-46.9-17.7-70.4-26.5c1.4-6.8,6.7-9,12.4-10.7c37.5-11.5,75.1-22.7,112.5-34.7
		C499.6,251.1,512.7,250.4,522.4,241.4z"/>
	<path class="st3" d="M373.3,617.1c-4.7-1.7-5.4-5.8-6.3-10c-11.5-53.1-23.1-106.2-34.5-159.4c-1.3-6.2-6.3-10.5-7-16.8
		c5.5-15.1,11-30.2,16.6-45.3c2.3-6.3,6.6-11.3,12.8-13.7c13.7-5.3,27.6-10.2,41.4-15.2c8.4,37.7,16.8,75.3,25.2,113
		c0.7,3.2,2.4,5.2,5.6,5.9c-0.2,2.2-0.4,4.4-0.6,6.5c-8.8,20.2-17.1,40.7-24.4,61.5C393.3,568.5,384.1,593.1,373.3,617.1z"/>
	<path class="st2" d="M426.5,482.2c0.2-2.2,0.4-4.4,0.6-6.5c0.8-1.3,1.6-2.7,2.4-4c2.1-0.6,2.9-1.8,1.4-3.8
		c4.9-22.2,17.4-37.1,39.7-44.2c19.9-6.3,39.3-14.4,58.9-21.6c9.2-3.4,15.7-8.9,15.8-19.5c0.1-11-6.3-16.9-15.8-20.5
		c-8.4-3.2-16.7-6.6-25.1-10c2.1-3.5,5-5.9,8.8-7.1c29.7-9.2,59.4-18.4,89.1-27.5c1.5-0.5,3.2-0.2,4.8-0.3c0,34.8-0.2,69.6,0,104.3
		c0,7.1-1.7,10.5-9.3,12.7c-52.7,15.7-105.3,32.2-157.9,48.4C435.3,484,430.7,487.1,426.5,482.2z"/>
	<path class="st3" d="M522.4,241.4c-9.7,9-22.8,9.7-34.6,13.5c-37.4,12-75,23.2-112.5,34.7c-5.7,1.7-11,4-12.4,10.7
		c-8.7-2.2-16.7-5.9-20-14.7c-8.9-23.5-17.3-47.3-25.9-70.9c3.1,0.6,6.1,1.4,9.4,0.1c13.7-5.6,28-9.2,42.2-13.3
		c12-3.5,23.6-8,35.4-12c21.1,19.1,48,25.4,74.1,33.3C492.1,230.8,507.8,234.8,522.4,241.4z"/>
	<path class="st4" d="M317,214.7c-1.8-4.1-3.4-8.3-5.3-12.3c-2-4.3-5-6.7-10-4.1c4.6-24.2,16-46,24.2-69c1.7-4.8,3.6-9.6,5.3-14.5
		c7.4-20.9,18.2-25,37.3-14.2c10.6,22.2,17.6,45.9,26.4,68.8c2.6,6.9,5.4,13.6,9.1,20c-11.8,4.1-23.5,8.6-35.4,12
		c-14.2,4.1-28.5,7.7-42.2,13.3C323.1,216.1,320.1,215.3,317,214.7z"/>
	<path class="st4" d="M292.1,449.9c2.2,5.3,4.4,10.7,6.6,16c2,4.6,4.8,7.8,10.4,5.6c-0.6,9.5-5.3,17.8-8.4,26.5
		c-7.3,20.2-14.5,40.5-22.5,60.4c-6.9,17.2-19.2,20.8-35.5,11.3c-11.1-23.2-18.3-48-27.6-71.9c-2.5-6.3-5.1-12.4-8.6-18.2
		c21.7-6.7,43.5-13.3,65.2-20C279,457.2,287.3,457.2,292.1,449.9z"/>
	<path class="st4" d="M183.6,323.1c-2.4,3.6-6.7,3.5-10,5.3c-4.1,2.2-6.9,4.8-5,9.9c-18.8-4.4-36.3-12.4-54.5-18.6
		c-10-3.4-19.6-8-29.6-11.4c-8.7-2.9-15.5-7.5-18.9-16.3c0-14.5,3.3-19.8,16.6-24.9c18.9-7.2,37.9-14.4,57.1-21.1
		c8.9-3.1,17.2-7,24.9-12.5C167.6,264,174.3,293.8,183.6,323.1z"/>
	<path class="st4" d="M396.3,356.8c12.7-4.8,25.5-9.6,38.1-14.5c5.1-2,10.6-4,7.6-11.5c16.9,3.8,32.2,12.1,48.6,17.1
		c4.6,1.4,9.1,2.8,13.7,4.1c8.4,3.3,16.7,6.8,25.1,10c9.6,3.6,16,9.6,15.8,20.5c-0.1,10.6-6.5,16.1-15.8,19.5
		c-19.6,7.2-39,15.3-58.9,21.6c-22.3,7.1-34.8,21.9-39.7,44.2c-0.5,1.3-0.9,2.5-1.4,3.8c-0.8,1.3-1.6,2.7-2.4,4
		c-3.2-0.7-4.9-2.7-5.6-5.9C413.1,432.1,404.7,394.4,396.3,356.8z"/>
	<path class="st0" d="M429.5,471.6c0.5-1.3,0.9-2.5,1.4-3.8C432.4,469.8,431.6,471,429.5,471.6z"/>
</g>
</svg>
